# xmcd
#
# Track frame offsets:
#	150
#	18480
#	43248
#	67097
#	98624
#	125811
#	158002
#	179163
#	205602
#	246276
#
# Disc length: 3554 seconds
#
# Revision: 0
# Processed by: cddbd v1.5.1PL0 Copyright (c) Steve Scherf et al.
# Submitted via: EasyCDDAExtractor 4.6.9.1
#
DISCID=8f0de00a
DTITLE=Depeche Mode - Live Gotheburg 12.09.1998 - CD2
DYEAR=1998
DGENRE=live
TTITLE0=Condemnation
TTITLE1=In Your Room
TTITLE2=Useless
TTITLE3=Enjoy The Silence
TTITLE4=Personal Jesus
TTITLE5=Barrel Of A Gun
TTITLE6=Somebody
TTITLE7=Stripped
TTITLE8=I Feel You
TTITLE9=Just Can't Get Enough
EXTD=
EXTT0=
EXTT1=
EXTT2=
EXTT3=
EXTT4=
EXTT5=
EXTT6=
EXTT7=
EXTT8=
EXTT9=
PLAYORDER=
